<?xml version="1.0" ?><!DOCTYPE svg  PUBLIC '-//W3C//DTD SVG 1.1//EN'  'http://www.w3.org/Graphics/SVG/1.1/DTD/svg11.dtd'><svg enable-background="new 0 0 150 150" height="150px" id="Layer_1" version="1.1" viewBox="0 0 150 150" width="150px" xml:space="preserve" xmlns="http://www.w3.org/2000/svg" xmlns:xlink="http://www.w3.org/1999/xlink"><g><circle cx="74.998" cy="75" fill="#3A5B9D" opacity="0.1" r="75"/><path d="M74.998,0v150c41.421,0,74.999-33.579,74.999-75C149.997,33.579,116.419,0,74.998,0z" fill="#3A5B9D" opacity="0.1"/><circle cx="74.998" cy="75" fill="#3A5B9D" r="65.488"/><path d="M74.998,9.512v130.975c36.167,0,65.487-29.319,65.487-65.488C140.485,38.832,111.165,9.512,74.998,9.512z" fill="#355390"/><g><path d="M9.583,72.073C9.541,73.044,9.51,74.019,9.51,75c0,36.168,29.319,65.488,65.488,65.488v-5.852    C39.811,134.636,11.116,106.882,9.583,72.073z" fill="#355390"/><path d="M140.412,72.073c-1.532,34.809-30.228,62.562-65.414,62.562v5.852c36.167,0,65.487-29.319,65.487-65.488    C140.485,74.019,140.455,73.044,140.412,72.073z" fill="#304B84"/></g></g><path d="M85.223,49.193c1.894,0,5.885,0,9.581,0c0-1.945,0-8.667,0-14.875c-4.935,0-10.552,0-13.026,0  c-2.626,0-4.857,0.298-6.776,0.801c-11.547,3.032-11.24,13.805-11.24,15.637c0,2.139,0,11.684,0,11.684h-8.56v14.289h8.56v39.208  h11.24h6.346V76.729h11.799c0,0,1.104-6.85,1.641-14.342c-1.538,0-13.374,0-13.374,0s0-8.313,0-9.769  C81.412,51.159,83.329,49.193,85.223,49.193z" fill="#FFFFFF"/></svg>