<?xml version="1.0" ?><!DOCTYPE svg  PUBLIC '-//W3C//DTD SVG 1.1//EN'  'http://www.w3.org/Graphics/SVG/1.1/DTD/svg11.dtd'><svg enable-background="new 0 0 150 150" height="150px" id="Layer_1" version="1.1" viewBox="0 0 150 150" width="150px" xml:space="preserve" xmlns="http://www.w3.org/2000/svg" xmlns:xlink="http://www.w3.org/1999/xlink"><g><circle cx="74.999" cy="75.033" fill="#E86348" opacity="0.1" r="75"/><path d="M74.999,0.033v150c41.42,0,75-33.578,75-75C149.999,33.612,116.419,0.033,74.999,0.033z" fill="#E86348" opacity="0.1"/><circle cx="74.999" cy="75.034" fill="#E86348" r="65.488"/><path d="M74.999,9.546v130.976c36.168,0,65.486-29.32,65.486-65.488S111.167,9.546,74.999,9.546z" fill="#D85C43"/><g><path d="M9.583,72.107c-0.041,0.971-0.072,1.945-0.072,2.926c0,36.168,29.32,65.488,65.488,65.488v-5.853    C39.812,134.669,11.116,106.916,9.583,72.107z" fill="#D85C43"/><path d="M140.413,72.107c-1.533,34.809-30.229,62.562-65.414,62.562v5.853c36.168,0,65.486-29.32,65.486-65.488    C140.485,74.053,140.456,73.078,140.413,72.107z" fill="#CB563F"/></g></g><g><g><polygon fill="#FFFFFF" points="104.485,47.728 104.485,34.369 98.79,34.369 98.79,47.728 85.434,47.728 85.434,53.352     98.79,53.352 98.79,66.812 104.485,66.812 104.485,53.352 117.844,53.352 117.844,47.728   "/><path d="M80.468,86.75c-0.818-1.145-1.779-2.214-2.883-3.211c-1.103-0.998-2.225-1.995-3.363-2.995l-3.844-2.992    c-0.569-0.497-1.175-1.089-1.815-1.765c-0.64-0.677-0.958-1.619-0.958-2.834c0-1.208,0.318-2.21,0.958-2.994    c0.641-0.78,1.317-1.531,2.028-2.245c1.141-0.851,2.243-1.759,3.312-2.725c1.067-0.959,2.028-2.029,2.883-3.203    c0.852-1.176,1.528-2.514,2.026-4.011c0.495-1.497,0.746-3.243,0.746-5.241c0-1.99-0.282-3.775-0.852-5.341    c-0.571-1.569-1.248-2.938-2.028-4.115c-0.785-1.179-1.603-2.177-2.457-2.996c-0.854-0.818-1.601-1.477-2.243-1.978H78.6    l6.834-3.735H63.438c-2.917,0-6.064,0.356-9.449,1.064c-3.38,0.715-6.6,2.315-9.66,4.804c-2.277,1.995-3.987,4.257-5.123,6.781    c-1.142,2.527-1.709,5.036-1.709,7.526c0,2.064,0.391,4.111,1.175,6.138c0.782,2.03,1.921,3.831,3.416,5.393    c1.493,1.566,3.345,2.829,5.552,3.789c2.204,0.961,4.732,1.442,7.581,1.442c0.569,0,1.135-0.018,1.706-0.055    c0.569-0.034,1.139-0.086,1.708-0.158c-0.282,0.641-0.531,1.263-0.747,1.87c-0.213,0.603-0.32,1.368-0.32,2.292    c0,1.639,0.338,3.007,1.013,4.109c0.677,1.105,1.406,2.153,2.19,3.154c-1.212,0.069-2.634,0.175-4.27,0.317    c-1.639,0.143-3.383,0.39-5.231,0.746c-1.852,0.356-3.722,0.839-5.605,1.442c-1.887,0.605-3.649,1.403-5.286,2.4    c-3.131,1.851-5.282,4.004-6.457,6.459c-1.174,2.455-1.763,4.643-1.763,6.567c0,1.99,0.464,3.896,1.388,5.712    c0.926,1.813,2.349,3.432,4.268,4.856c1.926,1.424,4.327,2.563,7.208,3.418c2.887,0.854,6.248,1.279,10.092,1.279    c4.553,0,8.593-0.587,12.116-1.763c3.523-1.178,6.457-2.712,8.808-4.598c2.352-1.89,4.125-4.047,5.337-6.47    c1.209-2.423,1.816-4.884,1.816-7.377c0-1.851-0.249-3.493-0.747-4.917C81.943,89.169,81.286,87.886,80.468,86.75z M60.235,68.318    c-2.277,0-4.254-0.662-5.924-1.982c-1.672-1.322-3.062-2.947-4.162-4.875c-1.104-1.927-1.921-4-2.457-6.214    c-0.535-2.214-0.801-4.216-0.801-5.999c0-1.43,0.16-2.82,0.479-4.177c0.322-1.358,0.942-2.607,1.87-3.753    c0.854-1.07,1.957-1.929,3.309-2.569c1.352-0.642,2.737-0.966,4.165-0.966c2.207,0,4.146,0.661,5.817,1.982    c1.673,1.32,3.077,2.981,4.218,4.985c1.141,1.998,1.992,4.141,2.562,6.424c0.569,2.287,0.854,4.393,0.854,6.32    c0,1-0.144,2.252-0.426,3.751c-0.285,1.501-1.031,2.857-2.242,4.069c-0.858,0.858-1.939,1.573-3.258,2.145    C62.924,68.031,61.589,68.318,60.235,68.318z M72.035,107.978c-2.672,2.17-6.566,3.256-11.69,3.256    c-5.768,0-10.341-1.21-13.719-3.629c-3.385-2.421-5.071-5.552-5.071-9.394c0-1.922,0.373-3.522,1.12-4.806    c0.748-1.28,1.619-2.347,2.616-3.203c0.997-0.855,2.01-1.512,3.045-1.976c1.029-0.461,1.83-0.801,2.399-1.014    c1.139-0.355,2.312-0.658,3.523-0.905c1.209-0.251,2.35-0.429,3.416-0.536c1.067-0.105,1.991-0.179,2.775-0.213    c0.782-0.036,1.284-0.055,1.493-0.055c0.569,0,1.017,0,1.337,0s0.693,0.036,1.119,0.108c1.993,1.423,3.736,2.706,5.229,3.843    c1.497,1.139,2.706,2.242,3.634,3.309c0.921,1.067,1.617,2.153,2.079,3.255c0.464,1.106,0.695,2.336,0.695,3.685    C76.037,103.046,74.702,105.806,72.035,107.978z" fill="#FFFFFF"/></g></g></svg>