<?xml version="1.0" ?><!DOCTYPE svg  PUBLIC '-//W3C//DTD SVG 1.1//EN'  'http://www.w3.org/Graphics/SVG/1.1/DTD/svg11.dtd'><svg enable-background="new 0 0 150 150" height="150px" id="Layer_1" version="1.1" viewBox="0 0 150 150" width="150px" xml:space="preserve" xmlns="http://www.w3.org/2000/svg" xmlns:xlink="http://www.w3.org/1999/xlink"><g><circle cx="74.982" cy="75" fill="#32B1E6" opacity="0.1" r="75"/><path d="M74.982,0v150c41.42,0,75-33.578,75-75C149.982,33.579,116.402,0,74.982,0z" fill="#32B1E6" opacity="0.1"/><circle cx="74.982" cy="75" fill="#32B1E6" r="65.488"/><path d="M74.982,9.513v130.976c36.168,0,65.486-29.32,65.486-65.488C140.469,38.833,111.15,9.513,74.982,9.513z" fill="#30A5D6"/><g><path d="M9.566,72.074C9.525,73.044,9.494,74.019,9.494,75c0,36.168,29.32,65.488,65.488,65.488v-5.853    C39.795,134.636,11.1,106.883,9.566,72.074z" fill="#30A5D6"/><path d="M140.396,72.074c-1.533,34.809-30.229,62.562-65.414,62.562v5.853c36.168,0,65.486-29.32,65.486-65.488    C140.469,74.019,140.439,73.044,140.396,72.074z" fill="#2D9AC8"/></g></g><path d="M95.081,93.805c-1.769,2.514-4.387,4.5-7.791,5.906c-3.358,1.399-7.384,2.114-11.974,2.114  c-5.503,0-10.117-0.97-13.725-2.886c-2.57-1.389-4.693-3.268-6.305-5.604c-1.632-2.339-2.451-4.669-2.451-6.926  c0-1.4,0.535-2.613,1.598-3.613c1.048-0.994,2.394-1.486,3.999-1.486c1.312,0,2.451,0.391,3.374,1.17  c0.882,0.753,1.638,1.863,2.246,3.285c0.681,1.558,1.421,2.873,2.197,3.898c0.758,1,1.84,1.836,3.219,2.492  c1.389,0.653,3.263,0.991,5.567,0.991c3.169,0,5.766-0.675,7.72-2.009c1.912-1.298,2.837-2.869,2.837-4.787  c0-1.509-0.485-2.699-1.479-3.632c-1.049-0.976-2.423-1.729-4.091-2.26c-1.742-0.539-4.108-1.13-7.031-1.743  c-3.983-0.851-7.359-1.858-10.039-3.008c-2.754-1.162-4.969-2.784-6.59-4.811c-1.646-2.067-2.479-4.653-2.479-7.688  c0-2.895,0.876-5.501,2.604-7.753c1.707-2.239,4.216-3.98,7.439-5.168c3.176-1.178,6.96-1.771,11.243-1.771  c3.418,0,6.433,0.395,8.943,1.179c2.531,0.785,4.656,1.841,6.329,3.153c1.684,1.322,2.942,2.723,3.725,4.188  c0.796,1.479,1.198,2.947,1.198,4.37c0,1.373-0.527,2.618-1.568,3.703c-1.051,1.093-2.38,1.647-3.939,1.647  c-1.414,0-2.528-0.35-3.297-1.03c-0.718-0.637-1.466-1.629-2.292-3.049c-0.951-1.812-2.11-3.243-3.436-4.252  c-1.292-0.987-3.442-1.477-6.403-1.477c-2.743,0-4.978,0.545-6.637,1.639c-1.598,1.046-2.38,2.249-2.38,3.676  c0,0.87,0.255,1.598,0.771,2.228c0.539,0.668,1.309,1.245,2.283,1.735c1.005,0.506,2.046,0.917,3.086,1.195  c1.064,0.298,2.85,0.738,5.301,1.305c3.102,0.664,5.951,1.413,8.472,2.221c2.555,0.813,4.755,1.812,6.562,2.991  c1.833,1.195,3.283,2.724,4.319,4.557c1.033,1.851,1.554,4.114,1.554,6.757C97.761,88.41,96.858,91.285,95.081,93.805L95.081,93.805  z M112.864,83.713c0.579-2.656,0.884-5.402,0.884-8.229c0-21.165-17.152-38.331-38.324-38.331c-2.232,0-4.419,0.191-6.556,0.563  c-3.426-2.161-7.478-3.409-11.818-3.409c-12.28,0-22.232,9.947-22.232,22.23c0,4.102,1.116,7.937,3.055,11.246  c-0.508,2.486-0.774,5.066-0.774,7.701c0,21.175,17.156,38.336,38.326,38.336c2.399,0,4.743-0.227,7.02-0.645  c3.132,1.683,6.705,2.642,10.505,2.642c12.274,0,22.229-9.955,22.229-22.228C115.177,90.042,114.345,86.691,112.864,83.713  L112.864,83.713z" fill="#FFFFFF"/></svg>